<?xml version="1.0" encoding="UTF-8" standalone="no"?>
<!-- Created with Inkscape (http://www.inkscape.org/) -->

<svg
   xmlns:dc="http://purl.org/dc/elements/1.1/"
   xmlns:cc="http://creativecommons.org/ns#"
   xmlns:rdf="http://www.w3.org/1999/02/22-rdf-syntax-ns#"
   xmlns:svg="http://www.w3.org/2000/svg"
   xmlns="http://www.w3.org/2000/svg"
   xmlns:sodipodi="http://sodipodi.sourceforge.net/DTD/sodipodi-0.dtd"
   xmlns:inkscape="http://www.inkscape.org/namespaces/inkscape"
   width="697.17694mm"
   height="380.28189mm"
   viewBox="0 0 697.17695 380.2819"
   version="1.1"
   id="svg8"
   inkscape:version="0.92.3 (d244b95, 2018-08-02)"
   sodipodi:docname="gordonlogo6.svg"
   inkscape:export-filename="/home/miss10n-contr0l/Documents/gh/GordonEnterprisesSite/img/gordonlogowmottotempfinalpng.png"
   inkscape:export-xdpi="96"
   inkscape:export-ydpi="96">
  <defs
     id="defs2" />
  <sodipodi:namedview
     id="base"
     pagecolor="#ffffff"
     bordercolor="#666666"
     borderopacity="1.0"
     inkscape:pageopacity="0.0"
     inkscape:pageshadow="2"
     inkscape:zoom="0.25"
     inkscape:cx="698.87353"
     inkscape:cy="872.4633"
     inkscape:document-units="mm"
     inkscape:current-layer="layer1"
     showgrid="false"
     fit-margin-top="0"
     fit-margin-left="0"
     fit-margin-right="0"
     fit-margin-bottom="0"
     inkscape:window-width="1859"
     inkscape:window-height="1016"
     inkscape:window-x="1501"
     inkscape:window-y="27"
     inkscape:window-maximized="1" />
  <metadata
     id="metadata5">
    <rdf:RDF>
      <cc:Work
         rdf:about="">
        <dc:format>image/svg+xml</dc:format>
        <dc:type
           rdf:resource="http://purl.org/dc/dcmitype/StillImage" />
        <dc:title></dc:title>
      </cc:Work>
    </rdf:RDF>
  </metadata>
  <g
     inkscape:groupmode="layer"
     id="layer2"
     inkscape:label="bg"
     style="display:inline"
     transform="translate(27.705654,29.520836)">
    <rect
       style="fill:#241c1c;stroke-width:0.3320567"
       id="rect19"
       width="697.17694"
       height="380.28189"
       x="-27.705654"
       y="-29.520836" />
  </g>
  <g
     inkscape:groupmode="layer"
     id="layer5"
     inkscape:label="symbol"
     style="display:none"
     transform="translate(27.705654,29.520836)">
    <path
       style="fill:#6c5d53;stroke-width:0.2729933"
       id="path50"
       sodipodi:type="arc"
       sodipodi:cx="194.28"
       sodipodi:cy="66.560707"
       sodipodi:rx="35.529537"
       sodipodi:ry="38.175594"
       sodipodi:start="0"
       sodipodi:end="3.1172903"
       d="M 229.80954,66.560707 A 35.529537,38.175594 0 0 1 194.71171,104.73348 35.529537,38.175594 0 0 1 158.76095,67.488373 L 194.28,66.560707 Z" />
    <path
       d="m 512.53573,-75.254181 a 35.529537,38.175594 0 0 1 -35.09782,38.172776 35.529537,38.175594 0 0 1 -35.95076,-37.24511 l 35.51905,-0.927666 z"
       sodipodi:end="3.1172903"
       sodipodi:start="0"
       sodipodi:ry="38.175594"
       sodipodi:rx="35.529537"
       sodipodi:cy="-75.254181"
       sodipodi:cx="477.0062"
       sodipodi:type="arc"
       id="path71"
       style="fill:#6c5d53;stroke-width:0.2729933"
       transform="scale(1,-1)" />
  </g>
  <g
     transform="translate(27.70565,29.520836)"
     style="display:inline"
     inkscape:label="symbol copy"
     id="g910"
     inkscape:groupmode="layer">
    <path
       d="M 229.80952,68.828568 A 34.395447,34.395836 0 0 1 195.83201,103.22186 34.395447,34.395836 0 0 1 161.02879,69.664385 l 34.38529,-0.835817 z"
       sodipodi:end="3.1172903"
       sodipodi:start="0"
       sodipodi:ry="34.395836"
       sodipodi:rx="34.395447"
       sodipodi:cy="68.828568"
       sodipodi:cx="195.41408"
       sodipodi:type="arc"
       id="path906"
       style="fill:#6c5d53;stroke-width:0.25495747" />
    <path
       style="fill:#6c5d53;stroke-width:0.25495747"
       id="path921"
       sodipodi:type="arc"
       sodipodi:cx="477.38434"
       sodipodi:cy="-71.47438"
       sodipodi:rx="34.395447"
       sodipodi:ry="34.395836"
       sodipodi:start="0"
       sodipodi:end="3.1172903"
       d="m 511.77979,-71.47438 a 34.395447,34.395836 0 0 1 -33.97752,34.393296 34.395447,34.395836 0 0 1 -34.80322,-33.557479 l 34.38529,-0.835817 z"
       transform="scale(1,-1)" />
  </g>
  <g
     inkscape:groupmode="layer"
     id="layer3"
     inkscape:label="bg2"
     transform="translate(27.705654,29.520836)"
     style="display:inline">
    <rect
       style="fill:#aad400;stroke-width:0.26458332"
       id="rect24"
       width="635"
       height="4.5357141"
       x="2.2678571"
       y="258.19464" />
    <rect
       y="116.07558"
       x="0.7559523"
       height="4.5357141"
       width="635"
       id="rect28"
       style="fill:#bcd35f;stroke-width:0.26458332" />
    <rect
       y="120.61129"
       x="0.7559523"
       height="4.5357141"
       width="635"
       id="rect34"
       style="fill:#aad400;stroke-width:0.26458332" />
    <rect
       style="fill:#bcd35f;stroke-width:0.26458332"
       id="rect46"
       width="635"
       height="4.5357141"
       x="2.2678571"
       y="262.73035" />
  </g>
  <g
     inkscape:label="Layer 1"
     inkscape:groupmode="layer"
     id="layer1"
     transform="translate(222.90303,12.704539)">
    <text
       xml:space="preserve"
       style="font-style:normal;font-weight:normal;font-size:169.93119812px;line-height:1.25;font-family:sans-serif;letter-spacing:0px;word-spacing:0px;fill:#000000;fill-opacity:1;stroke:none;stroke-width:4.24828005"
       x="-178.99129"
       y="144.10614"
       id="text12"
       transform="scale(1.1464274,0.87227506)"><tspan
         sodipodi:role="line"
         id="tspan10"
         x="-178.99129"
         y="144.10614"
         style="font-style:normal;font-variant:normal;font-weight:normal;font-stretch:normal;font-size:169.93197632px;font-family:AnjaliOldLipi;-inkscape-font-specification:'AnjaliOldLipi, Normal';font-variant-ligatures:normal;font-variant-caps:normal;font-variant-numeric:normal;font-feature-settings:normal;text-align:start;writing-mode:lr-tb;text-anchor:start;fill:#ececec;stroke-width:4.24828005">Gordon</tspan></text>
    <text
       xml:space="preserve"
       style="font-style:normal;font-weight:normal;font-size:158.7993927px;line-height:1.25;font-family:sans-serif;letter-spacing:0px;word-spacing:0px;fill:#000000;fill-opacity:1;stroke:none;stroke-width:3.96998453"
       x="-208.33229"
       y="246.24792"
       id="text16"
       transform="scale(0.92177164,1.0848674)"><tspan
         sodipodi:role="line"
         id="tspan14"
         x="-208.33229"
         y="246.24792"
         style="font-style:normal;font-variant:normal;font-weight:500;font-stretch:normal;font-size:158.79953003px;font-family:aakar;-inkscape-font-specification:'aakar, Medium';font-variant-ligatures:normal;font-variant-caps:normal;font-variant-numeric:normal;font-feature-settings:normal;text-align:start;writing-mode:lr-tb;text-anchor:start;fill:#44aa00;stroke-width:3.96998453">Enterprises</tspan></text>
    <path
       style="fill:#1f1a1a;stroke-width:4;fill-opacity:1"
       d="M 3.67353,718.82259 V 0.82258675 h 1313.99997 1314 V 718.82259 1436.8226 h -1314 H 3.67353 Z M 1422.9144,1189.8226 c -0.9398,-4.8882 -6.4826,-7.6877 -18.3728,-9.2795 -22.3436,-2.9912 -25.8327,-7.1722 -28.0226,-33.5798 l -1.8361,-22.1407 h 570.4953 570.4953 v -20 -20 h -570 -570 v -20.1407 c 0,-19.4749 0.2808,-19.9708 8.4875,-15 4.6681,2.8274 12.3181,7.3642 17,10.0817 12.4589,7.2317 46.109,5.9779 64.5125,-2.4037 62.3033,-28.375 96.333,-144.54695 66.0503,-225.48471 -9.7915,-26.17028 -32.7725,-54.09128 -50.679,-61.57308 -30.1564,-12.60016 -69.4784,-2.08084 -93.1955,24.9314 l -12.1758,13.86744 v -22.13916 c 0,-12.17656 -1.6405,-22.1392 -3.6455,-22.1392 -2.0051,0 -17.7551,6.03744 -35,13.41652 -47.5407,20.3426 -49.3545,20.71628 -49.3545,10.168 0,-22.59204 -29.0662,-30.99444 -53.9717,-15.60196 -7.1039,4.3904 -18.1163,15.50628 -24.4722,24.70196 l -11.5561,16.7194 -1.1909,-24.70196 c -0.6549,-13.58608 -2.3246,-24.70196 -3.7104,-24.70196 -1.3858,0 -20.2,7.51276 -41.8092,16.695 -40.935,17.3942 -50.0783,27.305 -25.1905,27.305 11.4539,0 14.8309,1.925 18,10.2604 5.9387,15.62004 4.933,197.49021 -1.1579,209.40451 -2.7176,5.3156 -11.2411,11.7762 -18.9411,14.3568 -7.7,2.5806 -14,7.2314 -14,10.3352 0,4.5808 12.2353,5.85 65,6.7422 62.9603,1.0646 65,0.8449 65,-7 0,-6.518 -2.6121,-8.0991 -13.38,-8.0991 -8.5156,0 -16.1504,-3.058 -21,-8.4112 -6.9407,-7.6613 -7.7247,-16.4866 -8.7951,-98.99997 l -1.1751,-90.58884 12.087,-19 c 14.0249,-22.0462 23.1161,-24.0422 40.9927,-9 6.5364,5.5 15.2176,10 19.2917,10 8.4112,0 19.9788,-10.12228 19.9788,-17.48252 0,-7.10392 28.781,-3.2904 35,4.63756 3.7689,4.80456 5,38.6872 5,137.60948 v 131.23549 h -607.99997 -608 v 20 20 h 608 607.99997 l -0.059,17 c -0.085,24.5077 -7.2594,36.0657 -24.9901,40.2589 -8.4688,2.0028 -14.9509,5.9649 -14.9509,9.1384 0,4.5848 12.4075,5.6027 68.2933,5.6027 62.8872,0 68.1868,-0.5541 66.9475,-7 z M 831.63573,1057.4015 c 18.13976,-9.7284 37.84872,-34.0902 34.54484,-42.7 -2.19008,-5.7072 -4.18188,-5.1808 -15.07388,3.9842 -16.10128,13.5484 -34.9454,12.718 -42.28296,-1.8631 -3.66356,-7.2802 -5.04832,-39.10233 -5.09124,-117.00001 l -0.059,-107 h 26 26 v -12 -12 h -26 -26 v -37.76392 c 0,-20.77016 -1.61836,-38.76416 -3.5964,-39.98664 -1.978,-1.22248 -15.4064,15.51736 -29.84088,37.19964 -14.43448,21.68228 -30.81612,42.41776 -36.4036,46.07884 -15.71096,10.2942 -13.12512,18.47208 5.84088,18.47208 h 16 l 0.024,111 c 0.012,63.36808 1.7794,117.32641 4.117,125.74291 8.68036,31.2532 41.63572,44.0256 71.82288,27.836 z m 195.27867,-2.1864 c 27.3649,-14.1509 68.7591,-70.71199 68.7591,-93.95243 0,-13.82244 -6.3783,-9.77892 -22.9668,14.55992 -19.9433,29.26091 -39.4963,40.85091 -69.0332,40.91921 -46.74117,0.108 -75.33049,-36.51697 -82.40485,-105.56669 l -2.68292,-26.18692 83.54387,-1.0828 83.5439,-1.0828 -0.7909,-17.33828 c -1.8552,-40.67016 -24.6788,-79.35248 -54.9261,-93.09048 -19.4741,-8.84492 -53.28769,-9.76576 -71.96969,-1.95992 -34.4212,14.38208 -65.41736,58.09756 -73.96016,104.30972 -15.41924,83.41044 9.52828,158.47607 60.6302,182.43257 20.59508,9.6549 61.68925,8.6752 82.25755,-1.9611 z m 999.4987,5.3622 c 14.0435,-5.2946 35.9034,-25.9013 44.2943,-41.7547 7.7626,-14.6664 8.4687,-56.02921 1.195,-70.00001 -8.8493,-16.99716 -24.7271,-31.76568 -64.8932,-60.35972 -45.7566,-32.57388 -55.341,-43.51992 -55.3207,-63.17972 0.036,-33.89324 28.7594,-53.20288 58.2342,-39.14728 16.3792,7.81068 24.4398,19.65144 33.6567,49.4406 11.4695,37.06944 16.0941,31.84412 16.0941,-18.18448 0,-42.14876 -4.0879,-57.3714 -11.9782,-44.60464 -2.4149,3.90748 -7.6143,3.48492 -23.9717,-1.94812 -58.0072,-19.26692 -107.6889,13.12328 -107.9622,70.38648 -0.192,40.24764 13.5642,60.89552 63.2374,94.91732 47.4368,32.49012 56.6747,43.69848 56.6747,68.76337 0,25.455 -11.3696,39.5199 -34.4493,42.6155 -33.882,4.5445 -58.7039,-18.9195 -69.5015,-65.69931 -3.0069,-13.02744 -6.9735,-21 -10.4481,-21 -4.5027,0 -5.6011,9.80512 -5.6011,50.00001 0,38.3589 1.2107,50 5.2,50 2.86,0 6.91,-1.6638 9,-3.6973 2.3301,-2.2671 13.0839,-1.652 27.8,1.5901 30.2417,6.6625 54.2793,7.3136 68.7396,1.8619 z m 240.3528,-11.1723 c 25.197,-16.1689 60.9076,-66.70097 60.9076,-86.18697 0,-7.31604 -8.9871,-13.43404 -10.9748,-7.47108 -0.7958,2.3874 -6.9471,12.64456 -13.6696,22.79364 -16.6576,25.14841 -39.9028,38.28621 -67.707,38.26701 -46.9766,-0.032 -74.9434,-36.23465 -82.1223,-106.30485 l -2.6141,-25.51456 83.5439,-1.0828 83.5439,-1.0828 -1.1019,-18 c -3.6497,-59.62044 -40.5643,-99.6982 -92.0266,-99.91216 -26.8292,-0.1116 -43.7319,7.00992 -66.5422,28.03568 -33.2245,30.62532 -49.0882,80.69704 -45.3091,143.01204 3.7171,61.29084 23.3454,100.21195 59.8977,118.77155 18.2455,9.2642 24.6873,10.4681 47.8767,8.9475 21.3513,-1.4001 30.7567,-4.2995 46.2978,-14.2722 z m 211.9815,9.2267 c 31.0742,-12.9837 48.688,-40.757 48.8383,-77.00775 0.1532,-36.95836 -9.7712,-50.47432 -65.9122,-89.76596 -51.5475,-36.0768 -57.9547,-43.62916 -57.9801,-68.34308 -0.016,-16.02128 1.9703,-21.29788 11.6724,-31 13.0816,-13.08156 25.4108,-14.6814 46.2005,-5.99488 15.075,6.29868 26.6664,25.09524 34.3891,55.765 3.009,11.94956 6.8451,18.53756 10.7944,18.53756 5.2991,0 5.7591,-6.04784 3.4064,-44.78536 -1.496,-24.63196 -3.5232,-45.58848 -4.5047,-46.57 -0.9816,-0.98156 -4.2743,0.2816 -7.3172,2.80696 -4.2023,3.4876 -9.6361,3.14376 -22.5996,-1.43 -32.8849,-11.60248 -64.1665,-6.76404 -85.5538,13.23288 -15.9658,14.92784 -23.1672,34.03724 -23.0376,61.13184 0.1916,40.06832 14.4125,59.04664 74.7572,99.76684 16.6231,11.21716 33.7157,26.12156 37.9835,33.12084 19.3632,31.75611 0.5519,70.72601 -34.1403,70.72601 -30.3497,0 -54.6861,-25.141 -62.9197,-65.00001 -2.844,-13.76784 -6.8382,-23 -9.9508,-23 -3.9889,0 -5.1997,11.64252 -5.1997,50.00001 0,27.5 1.0183,50 2.263,50 1.2446,0 5.4053,-1.6818 9.2461,-3.7373 4.541,-2.4303 14.5905,-1.8856 28.737,1.5577 30.0087,7.3042 53.3283,7.3004 70.8278,-0.012 z m -2061.18151,-6.8091 c 1.12464,-4.95 6.55892,-28.5096 12.0762,-52.35465 12.08112,-52.2132 12.02456,-50.64536 1.82732,-50.64536 -5.6906,0 -10.11272,4.56796 -14.43384,14.90988 -11.588,27.73396 -28.51888,47.96283 -48.28206,57.68703 -17.16008,8.4434 -24.51366,9.3888 -73.07998,9.3956 -29.7,0 -57.15,-1.286 -61,-2.867 -6.36197,-2.6124 -7,-10.7514 -7,-89.29507 v -86.42064 l 58.36259,1.29512 c 55.81618,1.23856 58.69711,1.70868 66.0294,10.77452 4.21674,5.21368 8.74393,16.21548 10.06043,24.4484 3.12549,19.54572 7.28158,25.7976 15.14388,22.78056 5.54455,-2.12764 6.4037,-12.1508 6.4037,-74.7084 0,-62.5576 -0.85915,-72.58076 -6.4037,-74.7084 -7.93918,-3.04656 -12.01998,3.2448 -15.26414,23.53268 -1.38519,8.66248 -6.88139,20.0886 -12.24122,25.4484 -9.37966,9.37968 -11.73518,9.72732 -65.90912,9.72732 h -56.18182 v -77.81876 -77.81872 l 14.59268,-2.7376 c 25.33194,-4.75232 110.59002,0.71276 124.66466,7.99104 14.04289,7.26184 22.66472,21.24 26.8449,43.52228 2.04844,10.91908 4.79232,14.86176 10.34292,14.86176 6.96848,0 7.55484,-3.57016 7.55484,-46 v -46 h -144 c -123.33975,0 -144,0.83484 -144,5.81876 0,3.48856 5.63451,6.87576 14.0702,8.45832 7.98598,1.4982 17.4992,6.99884 22,12.72068 7.62597,9.69484 7.9298,16.64332 7.9298,181.35348 0,123.47028 -1.32269,174.17527 -4.73913,181.67357 -3.35149,7.3557 -9.79316,11.753 -22,15.0178 -12.2116,3.2661 -17.26087,6.7141 -17.26087,11.787 0,6.7628 8.2945,7.1704 145.92379,7.1704 h 145.92381 z m 154.10764,1 c 0,-5.6901 -2.66668,-8 -9.23548,-8 -5.07952,0 -12.72952,-2.5523 -17,-5.6719 -7.25164,-5.2972 -7.84816,-12.07 -9.03084,-102.53479 l -1.26628,-96.86296 13.26628,-13.80644 c 28.16176,-29.3084 56.48172,-32.44272 71.44216,-7.90688 7.16516,11.75124 7.79548,20.7016 7.8092,110.89292 0.016,105.60625 -1.4678,113.83875 -21.02024,116.61645 -4.93064,0.7005 -8.9648,3.9736 -8.9648,7.2736 0,5.0476 8.88888,6 56,6 45.8572,0 56,-1.0346 56,-5.7122 0,-3.1417 -5.2466,-7.1154 -11.65908,-8.8304 -6.41248,-1.7149 -13.13492,-5.4444 -14.93872,-8.2877 -1.80384,-2.8434 -3.36616,-42.06971 -3.47184,-87.16971 -0.2912,-124.36308 -6.59228,-155.10372 -35.86984,-175 -25.87168,-17.58172 -59.3744,-9.89664 -89.89072,20.61968 l -18.1698,18.1698 v -23.89476 c 0,-13.14208 -1.664,-23.89472 -3.69776,-23.89472 -2.03376,0 -16.88376,5.15664 -33,11.4592 -16.11624,6.30256 -32.45224,12.54608 -36.30224,13.87448 -12.82268,4.42428 -8.23316,14.66632 6.57204,14.66632 8.68596,0 14.44612,2.27784 16,6.32716 1.3354,3.47992 2.42796,53.4794 2.42796,111.10996 0,88.36279 -0.97576,106.17599 -6.2268,113.67279 -3.42476,4.8896 -9.61852,8.8901 -13.76396,8.8901 -8.59388,0 -13.66684,6.0819 -10.00924,12 1.4568,2.3571 25.37488,4 58.23608,4 53.09724,0 55.76392,-0.3826 55.76392,-8 z m 1117.99997,0.068 c 0,-3.8001 -5.633,-6.8478 -15.6732,-8.4798 -25.8296,-4.1986 -26.3268,-6.2499 -26.3268,-108.61569 0,-94.13348 0.8605,-100.0364 17.1971,-117.97252 10.5894,-11.62616 19.3745,-11.36832 34.0734,1 6.5364,5.5 15.5724,10 20.0801,10 19.283,0 28.3793,-40.27012 12.6494,-56 -17.2052,-17.2052 -49.7053,-6.14204 -71.879,24.4678 l -12.121,16.73252 v -22.36408 c 0,-12.30028 -1.6075,-23.3576 -3.5722,-24.57188 -5.4173,-3.34804 -84.3172,31.00332 -84.3763,36.73564 -0.032,3.02324 5.2898,5 13.4588,5 24.0198,0 24.4897,2.22584 24.4897,116 0,113.13551 -0.1344,113.78671 -24.4019,118.33931 -12.7069,2.3838 -17.2345,8.6909 -10.8337,15.0917 1.5204,1.5204 30.7704,2.2704 65,1.6667 51.8441,-0.9144 62.2356,-2.0882 62.2356,-7.0299 z m 186,-0.068 c 0,-6.0458 -2.6871,-8.015 -11,-8.0613 -27.0838,-0.1508 -28.7868,-9.5406 -28.9045,-159.36667 -0.09,-113.96012 -0.526,-121.266 -7.0955,-118.79432 -78.4939,29.53212 -98.0723,42.22228 -65.1407,42.22228 11.8242,0 16.9608,2.05832 20.1889,8.09 2.8805,5.38224 3.9317,42.97836 3.1407,112.32764 -1.1156,97.81777 -1.6671,104.58697 -8.9534,109.90997 -4.2705,3.1198 -12.8205,5.6724 -19,5.6724 -8.5688,0 -11.2355,1.8987 -11.2355,8 0,7.6667 2.6667,8 64,8 61.3333,0 64,-0.3332 64,-8 z m -48,-372.00001 c 19.7012,-19.7012 1.9788,-64.16712 -23.2013,-58.21256 -23.8434,5.63848 -32.61,35.2032 -16.5084,55.67312 10.1431,12.8948 28.1996,14.04952 39.7097,2.53944 z m 680,-114 v -18 h -1200 -1199.99997 v 18 18 h 1199.99997 1200 z M 438.38605,520.46507 c 61.37616,-15.91612 117.4166,-49.49072 137.88456,-82.6086 8.00504,-12.9524 9.36588,-21.2934 10.75664,-65.93111 l 1.59224,-51.10277 h -102.473 -102.47296 v 20 20 h 74 74 v 29.86081 c 0,27.40819 -0.9758,30.97223 -11.88068,43.39215 -36.69608,41.79452 -151.22558,67.04444 -221.30654,48.79068 -54.29793,-14.1428 -101.9406,-49.17928 -121.76412,-89.54549 -10.12014,-20.60743 -11.04866,-26.36396 -11.04866,-68.49815 0,-42.35522 0.89325,-47.81904 11.27351,-68.95772 29.24824,-59.56202 101.24389,-99.04228 180.6121,-99.04228 77.52395,0 153.04559,34.91329 160.40751,74.15563 l 2.5972,13.84437 h 25.55484 25.55484 v -12.15936 c 0,-53.86082 -87.00568,-107.20028 -192.39784,-117.95091 -76.99872,-7.85433 -185.75312,33.84757 -228.52332,87.62732 -47.39628,59.59665 -55.397028,139.00467 -21.06397,209.06159 45.92175,93.70376 182.2261,141.86052 308.69765,109.06384 z m 451.21772,6.30236 c 55.81152,-11.82216 95.13036,-41.6666 117.34953,-89.07256 9.3927,-20.04 10.7202,-27.83716 10.7202,-62.96672 0,-37.20508 -0.9427,-42.00869 -13.0821,-66.65778 -15.24671,-30.95832 -33.09739,-48.01014 -66.72839,-63.742 -45.53,-21.29796 -119.58316,-24.31574 -171.50432,-6.98907 -44.05552,14.70182 -71.05544,38.08482 -89.4686,77.48329 -9.94096,21.27064 -11.21656,28.54892 -11.21656,64 0,34.85992 1.35448,42.88872 10.54068,62.48004 5.79736,12.36404 17.01432,29.64564 24.9266,38.4036 38.29852,42.39184 117.33416,62.12788 188.46296,47.0612 z m 620.12893,1.70568 c 12.9407,-2.3922 35.7263,-10.4922 50.6348,-18 14.9085,-7.5078 28.0513,-13.65052 29.2062,-13.65052 1.1549,0 2.0998,6.3 2.0998,14 v 14 h 28 28 V 322.63983 120.45707 l -27,1.18276 -27,1.18276 -1.1035,63.38822 c -1.0145,58.2721 -1.6602,63.14617 -8,60.38928 -61.3543,-26.68 -132.908,-27.72868 -184.0292,-2.69712 -26.187,12.82256 -50.227,38.3572 -64.2256,68.21903 -9.2994,19.83727 -10.6417,27.74595 -10.6417,62.70059 0,36.6666 1.0619,42.24164 12.7426,66.89908 21.4708,45.32372 58.9809,74.72948 109.2574,85.65128 28.5486,6.20176 33.9447,6.29744 62.0592,1.10016 z m 437.9408,0.14284 c 51.1315,-8.15392 93.6134,-35.81992 117.4445,-76.48464 14.8383,-25.3196 23.9792,-64.56668 20.9806,-90.08089 -10.8035,-91.92047 -86.9282,-144.42157 -196.0782,-135.22971 -80.7465,6.79991 -130.3089,39.08998 -152.7395,99.51013 -9.8553,26.547 -9.7407,76.47507 0.24,104.49175 26.488,74.35456 110.8776,113.62476 210.1527,97.79336 z m -795.9121,-86.79336 c 0.1008,-95.20153 1.8705,-102.3311 33.9018,-136.57519 24.7246,-26.43251 41.2212,-33.93669 80.0103,-36.39597 l 32,-2.02884 1.2301,-21.607 1.2301,-21.60698 -36.3153,2.35276 c -39.9394,2.58756 -69.9032,13.45803 -97.1449,35.24287 l -15,11.99533 v -22.37936 -22.37936 l -25,1.19087 -25,1.19087 -1.0493,147 -1.0492,147 h 26.0492 26.0493 l 0.088,-83 z m 1071.9121,-9.72044 v -92.72047 l 19,-17.73933 c 41.1567,-38.42589 70.1041,-52.81976 106.2256,-52.81976 29.6811,0 56.2667,11.69759 67.1503,29.54603 6.9582,11.41095 7.5955,21.41519 7.6092,119.45397 l 0.015,107 h 26 26 V 412.66323 c 0,-103.13086 -0.625,-113.38446 -7.7643,-127.37872 -16.1594,-31.67505 -53.14,-52.64316 -102.8984,-58.34367 -40.3913,-4.62739 -84.3994,8.38207 -127.3373,37.64277 l -12,8.1776 -2,-20.96931 -2,-20.96931 -25,-1.19087 -25,-1.19087 v 148.19087 148.19087 h 26 26 z"
       id="path837"
       inkscape:connector-curvature="0"
       transform="matrix(0.26458333,0,0,0.26458333,-222.90303,-12.704539)" />
  </g>
</svg>
